<?xml version="1.0" encoding="UTF-8" standalone="no"?>
<svg
   xmlns:dc="http://purl.org/dc/elements/1.1/"
   xmlns:cc="http://creativecommons.org/ns#"
   xmlns:rdf="http://www.w3.org/1999/02/22-rdf-syntax-ns#"
   xmlns:svg="http://www.w3.org/2000/svg"
   xmlns="http://www.w3.org/2000/svg"
   height="79.644997"
   width="300"
   id="svg92"
   version="1.1"
   viewBox="0 0 300 79.644996">
  <metadata
     id="metadata96">
    <rdf:RDF>
      <cc:Work
         rdf:about="">
        <dc:format>image/svg+xml</dc:format>
        <dc:type
           rdf:resource="http://purl.org/dc/dcmitype/StillImage" />
        <dc:title>Recurso 2</dc:title>
      </cc:Work>
    </rdf:RDF>
  </metadata>
  <defs
     id="defs4">
    <style
       id="style2">.cls-1{fill:#333;}.cls-2{fill:#fff;}</style>
  </defs>
  <title
     id="title6">Recurso 2</title>
  <g
     transform="translate(0,0.00500061)"
     data-name="Capa 2"
     id="Capa_2">
    <g
       data-name="Capa 1"
       id="Capa_1-2">
      <polygon
         style="fill:#333333"
         id="polygon8"
         points="113.41,79.64 131.47,62.01 300,61.98 300,0 0.01,0 0,62.01 95.34,62.01 "
         class="cls-1" />
      <path
         style="fill:#ffffff"
         id="path10"
         d="m 28.11,10.76 h 5.57 l 12.2,32.84 3.13,0.55 v 2.59 H 34.69 v -2.59 l 3.31,-0.34 0.39,-0.67 -3.18,-9 H 23.66 l -3.19,9 0.54,0.68 3.35,0.39 V 46.8 H 12.93 v -2.65 l 3.19,-0.5 z M 29.28,18 24.67,31.1 H 34 Z"
         class="cls-2" />
      <path
         style="fill:#ffffff"
         id="path12"
         d="m 50.34,46.74 v -2.39 l 2.82,-0.2 0.75,-0.81 V 25 h -3.83 v -2.09 l 7.79,-2.49 h 2.57 l -0.23,5.41 c 0.91,-1 1.89,-1.9 2.92,-2.81 1.03,-0.91 2.13,-1.76 3.27,-2.57 0.29,-0.06 0.53,-0.09 0.71,-0.11 h 0.48 a 6.82,6.82 0 0 1 1.72,0.22 7.93,7.93 0 0 1 1.77,0.68 l -0.67,7.33 h -2.77 a 4,4 0 0 0 -1.44,-1.47 4.09,4.09 0 0 0 -2,-0.46 4.46,4.46 0 0 0 -1.61,0.37 14.14,14.14 0 0 0 -2.14,1.1 v 15.23 l 0.78,0.81 3.78,0.2 v 2.39 z"
         class="cls-2" />
      <path
         style="fill:#ffffff"
         id="path14"
         d="m 89.18,43.71 a 23.94,23.94 0 0 1 -4.9,2.66 11.8,11.8 0 0 1 -4.22,0.83 6.77,6.77 0 0 1 -5,-1.93 6.66,6.66 0 0 1 -1.94,-5 6.64,6.64 0 0 1 2.88,-5.71 q 2.85,-2 13.28,-4.38 V 28.6 A 6.06,6.06 0 0 0 88,24.41 5,5 0 0 0 84.16,23.09 8.3,8.3 0 0 0 82.97,23.17 13.65,13.65 0 0 0 81.62,23.4 v 5 h -4.85 a 3,3 0 0 1 -1.85,-0.46 1.8,1.8 0 0 1 -0.59,-1.48 c 0,-1.66 1.12,-3.1 3.34,-4.33 a 16.88,16.88 0 0 1 8.2,-1.84 q 5.46,0 7.69,2.1 2.23,2.1 2.22,7.31 v 13.69 l 0.7,0.76 2.82,0.25 v 2.34 h -9.43 z m 0,-2.18 v -8.65 c -3.49,0.78 -5.87,1.62 -7.15,2.54 a 4.34,4.34 0 0 0 -1.92,3.73 4,4 0 0 0 1.06,2.91 3.86,3.86 0 0 0 2.88,1.08 7.71,7.71 0 0 0 2.29,-0.41 17.18,17.18 0 0 0 2.84,-1.2 z"
         class="cls-2" />
      <path
         style="fill:#ffffff"
         id="path16"
         d="m 121.45,22 h 7.85 v 3 h -5.75 a 9.44,9.44 0 0 1 0.89,2 7.21,7.21 0 0 1 0.3,2.05 7.74,7.74 0 0 1 -3.08,6.37 12.88,12.88 0 0 1 -8.19,2.44 h -0.92 -0.61 a 5.85,5.85 0 0 0 -0.32,1 5,5 0 0 0 -0.09,0.92 5.6,5.6 0 0 0 0,0.68 7.15,7.15 0 0 0 0.11,0.75 l 3.61,0.46 c 4.36,0.64 7.39,1.5 9.07,2.58 a 5.19,5.19 0 0 1 2.53,4.65 q 0,3.93 -4.07,6.66 a 17.94,17.94 0 0 1 -10.18,2.72 14.37,14.37 0 0 1 -8,-2 6.07,6.07 0 0 1 -2.93,-5.3 5.69,5.69 0 0 1 1.45,-4 6.11,6.11 0 0 1 4,-1.81 8.09,8.09 0 0 1 -0.5,-1.39 4.69,4.69 0 0 1 -0.17,-1.25 4.86,4.86 0 0 1 0.7,-2.48 10.65,10.65 0 0 1 2.22,-2.55 9.35,9.35 0 0 1 -4.88,-3 7.61,7.61 0 0 1 -1.69,-5 8.11,8.11 0 0 1 3.06,-6.62 12.72,12.72 0 0 1 8.28,-2.5 17.38,17.38 0 0 1 3.6,0.39 21.45,21.45 0 0 1 3.71,1.23 z m -11.09,23.73 a 6.24,6.24 0 0 0 -1.68,2 5.13,5.13 0 0 0 -0.57,2.38 4.82,4.82 0 0 0 1.79,3.76 6.46,6.46 0 0 0 4.38,1.55 7,7 0 0 0 4.53,-1.42 4.4,4.4 0 0 0 1.79,-3.56 3,3 0 0 0 -1.18,-2.53 11.84,11.84 0 0 0 -4.55,-1.43 z M 114,22.85 a 3.79,3.79 0 0 0 -3.25,1.68 7.47,7.47 0 0 0 -1.19,4.47 8.18,8.18 0 0 0 1.19,4.67 3.66,3.66 0 0 0 3.16,1.75 3.6,3.6 0 0 0 3.09,-1.75 8.33,8.33 0 0 0 1.19,-4.7 7.55,7.55 0 0 0 -1.19,-4.42 3.54,3.54 0 0 0 -3,-1.7 z"
         class="cls-2" />
      <path
         style="fill:#ffffff"
         id="path18"
         d="m 144.51,20.26 q 6.11,0 9.71,3.7 3.6,3.7 3.6,10 a 12.68,12.68 0 0 1 -3.76,9.58 q -3.75,3.63 -10,3.63 a 12.57,12.57 0 0 1 -13.31,-13.31 13.26,13.26 0 0 1 3.78,-9.86 13.57,13.57 0 0 1 9.98,-3.74 z m -0.21,2.83 a 5,5 0 0 0 -4.53,2.77 15.39,15.39 0 0 0 -1.63,7.77 c 0,3.38 0.53,6 1.61,7.9 a 5,5 0 0 0 4.5,2.82 5.1,5.1 0 0 0 4.63,-2.74 q 1.63,-2.74 1.64,-7.82 a 15.69,15.69 0 0 0 -1.65,-7.88 5.08,5.08 0 0 0 -4.57,-2.82 z"
         class="cls-2" />
      <path
         style="fill:#ffffff"
         id="path20"
         d="m 161.26,46.74 v -2.39 l 2.72,-0.2 0.75,-0.81 V 25 h -3.62 v -2.09 l 7.64,-2.49 h 2.56 v 3.13 a 36.26,36.26 0 0 1 5.23,-2.46 12,12 0 0 1 3.84,-0.77 6.58,6.58 0 0 1 5.41,2.17 q 1.78,2.18 1.79,6.63 v 14.22 l 0.7,0.81 2.8,0.2 v 2.39 h -13 v -2.39 l 2.28,-0.2 0.72,-0.81 V 30.65 a 6.79,6.79 0 0 0 -1.08,-4.34 4.42,4.42 0 0 0 -3.62,-1.38 12,12 0 0 0 -2.22,0.23 c -0.84,0.16 -1.77,0.38 -2.81,0.67 v 17.51 l 0.73,0.81 2.33,0.2 v 2.39 z"
         class="cls-2" />
      <path
         style="fill:#ffffff"
         id="path22"
         d="m 210.29,43.71 a 23.89,23.89 0 0 1 -4.89,2.66 11.84,11.84 0 0 1 -4.22,0.83 6.77,6.77 0 0 1 -5,-1.93 6.67,6.67 0 0 1 -2,-5 6.64,6.64 0 0 1 2.85,-5.75 q 2.85,-2 13.29,-4.38 V 28.6 a 6.06,6.06 0 0 0 -1.22,-4.19 5,5 0 0 0 -3.83,-1.32 8.2,8.2 0 0 0 -1.19,0.08 12.73,12.73 0 0 0 -1.35,0.23 v 5 h -4.89 a 3,3 0 0 1 -1.86,-0.46 1.8,1.8 0 0 1 -0.58,-1.48 q 0,-2.49 3.34,-4.33 a 16.85,16.85 0 0 1 8.2,-1.84 q 5.46,0 7.68,2.1 2.22,2.1 2.23,7.31 v 13.69 l 0.7,0.76 2.82,0.25 v 2.34 H 211 Z m 0,-2.18 v -8.65 c -3.49,0.78 -5.87,1.62 -7.15,2.54 a 4.36,4.36 0 0 0 -1.91,3.73 4,4 0 0 0 1.06,2.91 3.85,3.85 0 0 0 2.87,1.08 7.77,7.77 0 0 0 2.3,-0.41 16.76,16.76 0 0 0 2.83,-1.2 z"
         class="cls-2" />
      <path
         style="fill:#ffffff"
         id="path24"
         d="m 222.8,46.74 v -2.39 l 2.82,-0.2 0.76,-0.81 V 25 h -3.84 v -2.09 l 7.8,-2.49 h 2.56 l -0.23,5.41 c 0.92,-1 1.89,-1.9 2.93,-2.81 a 41.42,41.42 0 0 1 3.26,-2.57 c 0.29,-0.06 0.53,-0.09 0.71,-0.11 h 0.48 a 6.76,6.76 0 0 1 1.72,0.22 8.19,8.19 0 0 1 1.78,0.68 l -0.67,7.33 h -2.78 a 3.9,3.9 0 0 0 -1.43,-1.45 4.12,4.12 0 0 0 -2,-0.46 4.51,4.51 0 0 0 -1.67,0.34 15.14,15.14 0 0 0 -2.14,1.1 v 15.24 l 0.78,0.81 3.78,0.2 v 2.39 z"
         class="cls-2" />
      <path
         style="fill:#ffffff"
         id="path26"
         d="m 253.28,20.42 h 2.57 v 22.92 l 0.78,0.81 3,0.2 v 2.39 H 245.7 v -2.39 l 2.87,-0.2 0.75,-0.81 V 25 h -3.49 v -2.09 z m -0.56,-12.1 a 3.88,3.88 0 0 1 2.84,1.1 3.75,3.75 0 0 1 1.12,2.79 4,4 0 0 1 -1.1,2.89 3.91,3.91 0 0 1 -6.7,-2.79 4,4 0 0 1 1.12,-2.85 3.67,3.67 0 0 1 2.72,-1.14 z"
         class="cls-2" />
      <path
         style="fill:#ffffff"
         id="path28"
         d="m 274.42,20.26 q 6.12,0 9.72,3.7 3.6,3.7 3.6,10 a 12.71,12.71 0 0 1 -3.74,9.56 13.74,13.74 0 0 1 -10,3.63 12.57,12.57 0 0 1 -13.3,-13.31 13.26,13.26 0 0 1 3.75,-9.84 13.55,13.55 0 0 1 9.97,-3.74 z m -0.2,2.83 a 5,5 0 0 0 -4.54,2.77 15.49,15.49 0 0 0 -1.63,7.77 16,16 0 0 0 1.62,7.9 5,5 0 0 0 4.49,2.82 5.12,5.12 0 0 0 4.64,-2.74 q 1.63,-2.74 1.63,-7.82 a 15.81,15.81 0 0 0 -1.64,-7.88 5.08,5.08 0 0 0 -4.57,-2.82 z"
         class="cls-2" />
    </g>
  </g>
</svg>
