<svg xmlns="http://www.w3.org/2000/svg" viewBox="0 0 300 79.64"><defs><style>.cls-1{fill:#fc565b;}.cls-2{fill:#fff;}</style></defs><title>Recurso 1</title><g id="Capa_2" data-name="Capa 2"><g id="Capa_1-2" data-name="Capa 1"><polygon class="cls-1" points="300 0 0.01 0 0 62.01 95.34 62.01 113.41 79.64 131.47 62.01 300 61.98 300 0"/><path class="cls-2" d="M28.11,10.76h5.57L45.88,43.6l3.13.55v2.59H34.69V44.15L38,43.81l.39-.67-3.18-9H23.66l-3.19,9,.54.68,3.35.39v2.59H12.93V44.15l3.19-.5ZM29.28,18l-4.61,13.1H34Z"/><path class="cls-2" d="M50.34,46.74V44.35l2.82-.2.75-.81V25H50.08V22.91l7.79-2.49h2.57l-.23,5.41c.91-1,1.89-1.9,2.92-2.81s2.13-1.76,3.27-2.57c.29-.06.53-.09.71-.11l.48,0a6.82,6.82,0,0,1,1.72.22,7.93,7.93,0,0,1,1.77.68l-.67,7.33H67.64A4,4,0,0,0,66.2,27.1a4.09,4.09,0,0,0-2-.46,4.46,4.46,0,0,0-1.61.37,14.14,14.14,0,0,0-2.14,1.1V43.34l.78.81,3.78.2v2.39Z"/><path class="cls-2" d="M89.18,43.71a23.94,23.94,0,0,1-4.9,2.66,11.8,11.8,0,0,1-4.22.83,6.77,6.77,0,0,1-5-1.93,6.66,6.66,0,0,1-1.94-5A6.64,6.64,0,0,1,76,34.56q2.85-2,13.28-4.38V28.6A6.06,6.06,0,0,0,88,24.41a5,5,0,0,0-3.84-1.32,8.3,8.3,0,0,0-1.19.08,13.65,13.65,0,0,0-1.35.23v5H76.77a3,3,0,0,1-1.85-.46,1.8,1.8,0,0,1-.59-1.48c0-1.66,1.12-3.1,3.34-4.33a16.88,16.88,0,0,1,8.2-1.84q5.46,0,7.69,2.1t2.22,7.31V43.39l.7.76,2.82.25v2.34H89.87Zm0-2.18V32.88c-3.49.78-5.87,1.62-7.15,2.54a4.34,4.34,0,0,0-1.92,3.73,4,4,0,0,0,1.06,2.91,3.86,3.86,0,0,0,2.88,1.08,7.71,7.71,0,0,0,2.29-.41A17.18,17.18,0,0,0,89.18,41.53Z"/><path class="cls-2" d="M121.45,22h7.85v3h-5.75a9.44,9.44,0,0,1,.89,2,7.21,7.21,0,0,1,.3,2.05,7.74,7.74,0,0,1-3.08,6.37,12.88,12.88,0,0,1-8.19,2.44l-.92,0-.61,0a5.85,5.85,0,0,0-.32,1,5,5,0,0,0-.09.92,5.6,5.6,0,0,0,0,.68,7.15,7.15,0,0,0,.11.75l3.61.46c4.36.64,7.39,1.5,9.07,2.58a5.19,5.19,0,0,1,2.53,4.65q0,3.93-4.07,6.66a17.94,17.94,0,0,1-10.18,2.72,14.37,14.37,0,0,1-8-2,6.07,6.07,0,0,1-2.93-5.3,5.69,5.69,0,0,1,1.45-4,6.11,6.11,0,0,1,4-1.81,8.09,8.09,0,0,1-.5-1.39,4.69,4.69,0,0,1-.17-1.25,4.86,4.86,0,0,1,.7-2.48,10.65,10.65,0,0,1,2.22-2.55,9.35,9.35,0,0,1-4.88-3,7.61,7.61,0,0,1-1.69-5,8.11,8.11,0,0,1,3.06-6.62,12.72,12.72,0,0,1,8.28-2.5,17.38,17.38,0,0,1,3.6.39A21.45,21.45,0,0,1,121.45,22ZM110.36,45.73a6.24,6.24,0,0,0-1.68,2,5.13,5.13,0,0,0-.57,2.38,4.82,4.82,0,0,0,1.79,3.76,6.46,6.46,0,0,0,4.38,1.55A7,7,0,0,0,118.81,54a4.4,4.4,0,0,0,1.79-3.56,3,3,0,0,0-1.18-2.53,11.84,11.84,0,0,0-4.55-1.43ZM114,22.85a3.79,3.79,0,0,0-3.25,1.68A7.47,7.47,0,0,0,109.56,29a8.18,8.18,0,0,0,1.19,4.67,3.66,3.66,0,0,0,3.16,1.75A3.6,3.6,0,0,0,117,33.67a8.33,8.33,0,0,0,1.19-4.7A7.55,7.55,0,0,0,117,24.55,3.54,3.54,0,0,0,114,22.85Z"/><path class="cls-2" d="M144.51,20.26q6.11,0,9.71,3.7t3.6,10a12.68,12.68,0,0,1-3.76,9.58q-3.75,3.63-10,3.63a12.57,12.57,0,0,1-13.31-13.31A13.26,13.26,0,0,1,134.53,24,13.57,13.57,0,0,1,144.51,20.26Zm-.21,2.83a5,5,0,0,0-4.53,2.77,15.39,15.39,0,0,0-1.63,7.77c0,3.38.53,6,1.61,7.9a5,5,0,0,0,4.5,2.82,5.1,5.1,0,0,0,4.63-2.74q1.63-2.74,1.64-7.82a15.69,15.69,0,0,0-1.65-7.88A5.08,5.08,0,0,0,144.3,23.09Z"/><path class="cls-2" d="M161.26,46.74V44.35l2.72-.2.75-.81V25h-3.62V22.91l7.64-2.49h2.56v3.13a36.26,36.26,0,0,1,5.23-2.46,12,12,0,0,1,3.84-.77,6.58,6.58,0,0,1,5.41,2.17q1.78,2.18,1.79,6.63V43.34l.7.81,2.8.2v2.39h-13V44.35l2.28-.2.72-.81V30.65A6.79,6.79,0,0,0,180,26.31a4.42,4.42,0,0,0-3.62-1.38,12,12,0,0,0-2.22.23c-.84.16-1.77.38-2.81.67V43.34l.73.81,2.33.2v2.39Z"/><path class="cls-2" d="M210.29,43.71a23.89,23.89,0,0,1-4.89,2.66,11.84,11.84,0,0,1-4.22.83,6.77,6.77,0,0,1-5-1.93,6.67,6.67,0,0,1-2-5,6.64,6.64,0,0,1,2.85-5.75q2.85-2,13.29-4.38V28.6a6.06,6.06,0,0,0-1.22-4.19,5,5,0,0,0-3.83-1.32,8.2,8.2,0,0,0-1.19.08,12.73,12.73,0,0,0-1.35.23v5h-4.89a3,3,0,0,1-1.86-.46,1.8,1.8,0,0,1-.58-1.48q0-2.49,3.34-4.33a16.85,16.85,0,0,1,8.2-1.84q5.46,0,7.68,2.1t2.23,7.31V43.39l.7.76,2.82.25v2.34H211Zm0-2.18V32.88c-3.49.78-5.87,1.62-7.15,2.54a4.36,4.36,0,0,0-1.91,3.73,4,4,0,0,0,1.06,2.91,3.85,3.85,0,0,0,2.87,1.08,7.77,7.77,0,0,0,2.3-.41A16.76,16.76,0,0,0,210.29,41.53Z"/><path class="cls-2" d="M222.8,46.74V44.35l2.82-.2.76-.81V25h-3.84V22.91l7.8-2.49h2.56l-.23,5.41c.92-1,1.89-1.9,2.93-2.81a41.42,41.42,0,0,1,3.26-2.57c.29-.06.53-.09.71-.11l.48,0a6.76,6.76,0,0,1,1.72.22,8.19,8.19,0,0,1,1.78.68l-.67,7.33H240.1a3.9,3.9,0,0,0-1.43-1.45,4.12,4.12,0,0,0-2-.46A4.51,4.51,0,0,0,235,27a15.14,15.14,0,0,0-2.14,1.1V43.34l.78.81,3.78.2v2.39Z"/><path class="cls-2" d="M253.28,20.42h2.57V43.34l.78.81,3,.2v2.39H245.7V44.35l2.87-.2.75-.81V25h-3.49V22.91Zm-.56-12.1a3.88,3.88,0,0,1,2.84,1.1,3.75,3.75,0,0,1,1.12,2.79,4,4,0,0,1-1.1,2.89,3.91,3.91,0,0,1-6.7-2.79A4,4,0,0,1,250,9.46,3.67,3.67,0,0,1,252.72,8.32Z"/><path class="cls-2" d="M274.42,20.26q6.12,0,9.72,3.7t3.6,10A12.71,12.71,0,0,1,284,43.52a13.74,13.74,0,0,1-10,3.63A12.57,12.57,0,0,1,260.7,33.84,13.26,13.26,0,0,1,264.45,24,13.55,13.55,0,0,1,274.42,20.26Zm-.2,2.83a5,5,0,0,0-4.54,2.77,15.49,15.49,0,0,0-1.63,7.77,16,16,0,0,0,1.62,7.9,5,5,0,0,0,4.49,2.82,5.12,5.12,0,0,0,4.64-2.74q1.63-2.74,1.63-7.82a15.81,15.81,0,0,0-1.64-7.88A5.08,5.08,0,0,0,274.22,23.09Z"/></g></g></svg>