<?xml version="1.0" encoding="UTF-8" standalone="no"?>
<svg
   xmlns:dc="http://purl.org/dc/elements/1.1/"
   xmlns:cc="http://creativecommons.org/ns#"
   xmlns:rdf="http://www.w3.org/1999/02/22-rdf-syntax-ns#"
   xmlns:svg="http://www.w3.org/2000/svg"
   xmlns="http://www.w3.org/2000/svg"
   xmlns:sodipodi="http://sodipodi.sourceforge.net/DTD/sodipodi-0.dtd"
   xmlns:inkscape="http://www.inkscape.org/namespaces/inkscape"
   viewBox="0 0 176.32227 32.268766"
   version="1.1"
   id="svg50"
   sodipodi:docname="aragonario-white.svg"
   width="176.32227"
   height="32.268764"
   inkscape:version="1.0.2 (e86c870879, 2021-01-15)">
  <metadata
     id="metadata54">
    <rdf:RDF>
      <cc:Work
         rdf:about="">
        <dc:format>image/svg+xml</dc:format>
        <dc:type
           rdf:resource="http://purl.org/dc/dcmitype/StillImage" />
        <dc:title>Recurso 6</dc:title>
      </cc:Work>
    </rdf:RDF>
  </metadata>
  <sodipodi:namedview
     pagecolor="#ffffff"
     bordercolor="#666666"
     borderopacity="1"
     objecttolerance="10"
     gridtolerance="10"
     guidetolerance="10"
     inkscape:pageopacity="0"
     inkscape:pageshadow="2"
     inkscape:window-width="2048"
     inkscape:window-height="1115"
     id="namedview52"
     showgrid="false"
     fit-margin-top="0"
     fit-margin-left="0"
     fit-margin-right="0"
     fit-margin-bottom="0"
     inkscape:zoom="4.8392857"
     inkscape:cx="140"
     inkscape:cy="16.131255"
     inkscape:window-x="0"
     inkscape:window-y="0"
     inkscape:window-maximized="1"
     inkscape:current-layer="svg50" />
  <defs
     id="defs4">
    <style
       id="style2">.cls-1{fill:#fff;}</style>
  </defs>
  <title
     id="title6">Recurso 6</title>
  <g
     id="g988">
    <path
       id="Path_108"
       data-name="Path 108"
       class="cls-1"
       d="m 9.74,1.581256 h 3.57 l 7.82,21.21 2,0.35 v 1.86 H 14 v -1.86 l 2.15,-0.21 0.25,-0.44 -2.1,-5.82 H 6.87 l -2,5.79 0.35,0.43 2.14,0.25 v 1.86 H 0 v -1.86 l 2,-0.31 z m 0.75,4.7 -3,8.46 h 6 z" />
    <path
       id="Path_109"
       data-name="Path 109"
       class="cls-1"
       d="m 24,25.001256 v -1.7 l 1.81,-0.14 0.48,-0.51 v -11.85 h -2.46 v -1.38 l 5,-1.6 h 1.64 l -0.15,3.49 c 0.59,-0.62 1.21,-1.23 1.88,-1.81 a 24.27,24.27 0 0 1 2.1,-1.67 l 0.46,-0.07 h 0.31 a 4.54,4.54 0 0 1 1.1,0.14 5.08,5.08 0 0 1 1.14,0.44 l -0.43,4.74 H 35.1 a 2.59,2.59 0 0 0 -0.92,-0.94 2.63,2.63 0 0 0 -1.29,-0.3 3.09,3.09 0 0 0 -1,0.24 10.46,10.46 0 0 0 -1.37,0.71 v 9.84 l 0.5,0.52 2.43,0.14 v 1.71 z" />
    <path
       id="Path_110"
       data-name="Path 110"
       class="cls-1"
       d="m 48.91,22.861256 a 15.44,15.44 0 0 1 -3.14,1.72 7.83,7.83 0 0 1 -2.71,0.54 4.28,4.28 0 0 1 -4.45,-4.12 v -0.37 a 4.28,4.28 0 0 1 1.83,-3.63 q 1.83,-1.31 8.52,-2.83 v -1 a 3.9,3.9 0 0 0 -0.78,-2.71 3.18,3.18 0 0 0 -2.46,-0.85 6.47,6.47 0 0 0 -0.76,0.05 7.42,7.42 0 0 0 -0.86,0.15 v 3.19 H 41 a 1.85,1.85 0 0 1 -1.19,-0.3 1.14,1.14 0 0 1 -0.38,-1 c 0,-1.08 0.72,-2 2.14,-2.8 a 10.73,10.73 0 0 1 5.23,-1.19 c 2.33,0 4,0.45 4.93,1.36 0.93,0.91 1.43,2.47 1.42,4.72 v 8.87 l 0.45,0.48 1.91,0.18 v 1.68 h -6.17 z m 0,-1.41 v -5.59 a 13.89,13.89 0 0 0 -4.58,1.64 2.8,2.8 0 0 0 -1.23,2.41 2.57,2.57 0 0 0 0.68,1.89 2.51,2.51 0 0 0 1.84,0.69 4.89,4.89 0 0 0 1.47,-0.26 11.73,11.73 0 0 0 1.82,-0.78 z" />
    <path
       id="Path_111"
       data-name="Path 111"
       class="cls-1"
       d="m 69.62,8.801256 h 5 v 1.93 H 71 a 6.23,6.23 0 0 1 0.58,1.32 4.9,4.9 0 0 1 0.19,1.32 5,5 0 0 1 -2,4.12 8.17,8.17 0 0 1 -5.25,1.57 h -0.59 -0.39 a 4,4 0 0 0 -0.21,0.67 3.05,3.05 0 0 0 -0.06,0.6 3.11,3.11 0 0 0 0,0.43 4.44,4.44 0 0 0 0.07,0.49 l 2.31,0.3 a 15.89,15.89 0 0 1 5.83,1.67 3.38,3.38 0 0 1 1.62,3 5.14,5.14 0 0 1 -2.61,4.3 11.5,11.5 0 0 1 -6.49,1.73 9.11,9.11 0 0 1 -5.2,-1.25 3.93,3.93 0 0 1 -1.88,-3.42 3.68,3.68 0 0 1 0.93,-2.58 3.94,3.94 0 0 1 2.56,-1.17 5.66,5.66 0 0 1 -0.32,-0.9 3.1,3.1 0 0 1 -0.11,-0.81 3.14,3.14 0 0 1 0.45,-1.6 6.78,6.78 0 0 1 1.43,-1.64 6.08,6.08 0 0 1 -3.14,-1.93 5,5 0 0 1 -1.08,-3.23 5.21,5.21 0 0 1 2,-4.27 8.08,8.08 0 0 1 5.3,-1.62 10.49,10.49 0 0 1 2.28,0.17 14.54,14.54 0 0 1 2.4,0.8 z m -7.12,15.37 a 4.24,4.24 0 0 0 -1.08,1.3 3.45,3.45 0 0 0 -0.36,1.53 3.11,3.11 0 0 0 1.15,2.43 4.1,4.1 0 0 0 2.8,1 4.49,4.49 0 0 0 2.91,-0.93 2.85,2.85 0 0 0 1.15,-2.3 1.9,1.9 0 0 0 -0.75,-1.62 7.36,7.36 0 0 0 -2.92,-0.93 z m 2.35,-14.78 a 2.45,2.45 0 0 0 -2.09,1.08 5,5 0 0 0 -0.77,2.9 5.34,5.34 0 0 0 0.76,3 2.35,2.35 0 0 0 4,0 5.38,5.38 0 0 0 0.76,-3 5,5 0 0 0 -0.75,-2.86 2.3,2.3 0 0 0 -1.91,-1.12 z" />
    <path
       id="Path_112"
       data-name="Path 112"
       class="cls-1"
       d="m 84.41,7.721256 a 8.26,8.26 0 0 1 6.23,2.38 8.92,8.92 0 0 1 2.36,6.45 8.26,8.26 0 0 1 -2.41,6.19 8.8,8.8 0 0 1 -6.4,2.35 8.35,8.35 0 0 1 -6.19,-2.37 8.48,8.48 0 0 1 -2.35,-6.24 8.28,8.28 0 0 1 7.74,-8.77 7.66,7.66 0 0 1 1.07,0 z m -0.14,1.82 a 3.23,3.23 0 0 0 -2.91,1.79 9.9,9.9 0 0 0 -1,5 10.22,10.22 0 0 0 1,5.1 3.18,3.18 0 0 0 2.88,1.83 3.28,3.28 0 0 0 3,-1.78 9.92,9.92 0 0 0 1.05,-5.05 10.3,10.3 0 0 0 -1.05,-5.09 3.27,3.27 0 0 0 -2.94,-1.82 z" />
    <path
       id="Path_113"
       data-name="Path 113"
       class="cls-1"
       d="m 95.11,25.001256 v -1.7 l 1.79,-0.14 0.48,-0.51 v -11.85 h -2.33 v -1.38 l 4.95,-1.6 h 1.64 v 2 a 22.93,22.93 0 0 1 3.36,-1.57 7.59,7.59 0 0 1 2.46,-0.5 4.23,4.23 0 0 1 3.47,1.4 6.74,6.74 0 0 1 1.07,4.29 v 9.19 l 0.45,0.52 1.79,0.13 v 1.54 H 106 v -1.54 l 1.47,-0.14 0.46,-0.51 v -8.2 a 4.44,4.44 0 0 0 -0.73,-2.81 2.83,2.83 0 0 0 -2.33,-0.89 8.56,8.56 0 0 0 -1.42,0.15 c -0.54,0.1 -1.14,0.24 -1.8,0.43 v 11.32 l 0.46,0.51 1.5,0.14 v 1.72 z" />
    <path
       id="Path_114"
       data-name="Path 114"
       class="cls-1"
       d="m 126.61,22.861256 a 15.71,15.71 0 0 1 -3.14,1.72 7.83,7.83 0 0 1 -2.71,0.54 4.27,4.27 0 0 1 -4.45,-4.12 2.28,2.28 0 0 1 0,-0.37 4.28,4.28 0 0 1 1.83,-3.63 q 1.81,-1.31 8.52,-2.83 v -1 a 4,4 0 0 0 -0.78,-2.71 3.19,3.19 0 0 0 -2.46,-0.85 6.64,6.64 0 0 0 -0.77,0.05 8.23,8.23 0 0 0 -0.86,0.15 v 3.19 h -3.14 a 1.87,1.87 0 0 1 -1.19,-0.3 1.16,1.16 0 0 1 -0.37,-1 c 0,-1.08 0.71,-2 2.14,-2.8 a 10.73,10.73 0 0 1 5.27,-1.19 q 3.5,0 4.92,1.36 c 1,0.9 1.43,2.47 1.43,4.72 v 8.87 l 0.45,0.48 1.81,0.17 v 1.51 h -6.05 z m 0,-1.41 v -5.59 a 13.86,13.86 0 0 0 -4.61,1.64 2.85,2.85 0 0 0 -1.23,2.41 2.61,2.61 0 0 0 0.68,1.89 2.55,2.55 0 0 0 1.85,0.69 4.89,4.89 0 0 0 1.47,-0.26 11.73,11.73 0 0 0 1.82,-0.78 z" />
    <path
       id="Path_115"
       data-name="Path 115"
       class="cls-1"
       d="m 134.63,24.821256 v -1.54 l 1.82,-0.14 0.47,-0.51 v -11.83 h -2.45 v -1.38 l 5,-1.6 h 1.64 l -0.11,3.49 c 0.58,-0.62 1.21,-1.23 1.87,-1.81 a 26.06,26.06 0 0 1 2.1,-1.67 l 0.45,-0.07 h 0.31 a 4.63,4.63 0 0 1 1.11,0.14 5.19,5.19 0 0 1 1.13,0.44 l -0.43,4.74 h -1.78 a 2.44,2.44 0 0 0 -0.92,-0.94 2.61,2.61 0 0 0 -1.29,-0.3 3,3 0 0 0 -1,0.24 10,10 0 0 0 -1.38,0.71 v 9.84 l 0.5,0.52 2.43,0.14 v 1.54 z" />
    <path
       id="Path_116"
       data-name="Path 116"
       class="cls-1"
       d="m 154.19,7.821256 h 1.64 v 14.81 l 0.5,0.51 1.92,0.14 v 1.54 h -8.93 v -1.54 l 1.85,-0.14 0.48,-0.51 v -11.83 h -2.25 v -1.38 z m -0.37,-7.82000001 a 2.51,2.51 0 0 1 1.83,0.71 2.44,2.44 0 0 1 0.72,1.80000001 2.59,2.59 0 0 1 -0.71,1.87 2.59,2.59 0 0 1 -3.58,0 2.46,2.46 0 0 1 -0.71,-1.81 2.56,2.56 0 0 1 0.7,-1.84000001 2.32,2.32 0 0 1 1.75,-0.73 z" />
    <path
       id="Path_117"
       data-name="Path 117"
       class="cls-1"
       d="m 167.75,7.721256 a 8.26,8.26 0 0 1 6.25,2.38 8.87,8.87 0 0 1 2.31,6.45 8.22,8.22 0 0 1 -2.41,6.19 8.78,8.78 0 0 1 -6.39,2.35 8.32,8.32 0 0 1 -6.19,-2.37 8.45,8.45 0 0 1 -2.36,-6.24 8.28,8.28 0 0 1 7.74,-8.77 7.64,7.64 0 0 1 1.07,0 z m -0.13,1.82 a 3.23,3.23 0 0 0 -2.91,1.79 10,10 0 0 0 -1.05,5 10.44,10.44 0 0 0 1,5.1 3.19,3.19 0 0 0 2.88,1.83 3.29,3.29 0 0 0 3,-1.78 10.13,10.13 0 0 0 1.05,-5.05 10.2,10.2 0 0 0 -1.06,-5.09 3.24,3.24 0 0 0 -2.91,-1.8 z" />
  </g>
</svg>
