<svg id="Capa_1" data-name="Capa 1" xmlns="http://www.w3.org/2000/svg" viewBox="0 0 112 112"><defs><style>.cls-1{fill:#fff;}</style></defs><rect class="cls-1" x="36.53" y="54.19" width="38.94" height="3.61"/><path class="cls-1" d="M30.54,23.24a2,2,0,0,1-.42.44,1,1,0,0,1-.6.16,1.5,1.5,0,0,1-.85-.33,11.08,11.08,0,0,0-1.16-.72,9.28,9.28,0,0,0-1.71-.71,8,8,0,0,0-2.46-.33,8,8,0,0,0-3.42.69,6.64,6.64,0,0,0-2.49,2,9,9,0,0,0-1.51,3.15,15.67,15.67,0,0,0-.51,4.15A15,15,0,0,0,16,36a9.11,9.11,0,0,0,1.54,3.12,6.43,6.43,0,0,0,2.41,1.93,7.35,7.35,0,0,0,3.19.67,8.16,8.16,0,0,0,2.79-.4,8.43,8.43,0,0,0,1.83-.9,12.41,12.41,0,0,0,1.2-.9,1.45,1.45,0,0,1,.94-.41,1,1,0,0,1,.89.45l1.3,1.69a10,10,0,0,1-4.3,3.09,15.3,15.3,0,0,1-5.45,1,11.53,11.53,0,0,1-4.61-.91A10.6,10.6,0,0,1,14,41.77a12.64,12.64,0,0,1-2.46-4.27,17.07,17.07,0,0,1-.9-5.76,17.34,17.34,0,0,1,.82-5.45A12.44,12.44,0,0,1,13.86,22a10.84,10.84,0,0,1,3.9-2.83,13.08,13.08,0,0,1,5.32-1A12.52,12.52,0,0,1,28,19a11.73,11.73,0,0,1,3.78,2.55Z"/><path class="cls-1" d="M56.28,45H54.22a2.56,2.56,0,0,1-1.09-.2,1.15,1.15,0,0,1-.55-.89l-.53-2.45c-.69.62-1.37,1.18-2,1.68a11.44,11.44,0,0,1-2.09,1.25,10.45,10.45,0,0,1-2.33.77,13.67,13.67,0,0,1-2.75.26A9.24,9.24,0,0,1,40,45a6.52,6.52,0,0,1-2.34-1.3,6.1,6.1,0,0,1-1.58-2.18,7.7,7.7,0,0,1-.58-3.13,5.78,5.78,0,0,1,.86-3,7.52,7.52,0,0,1,2.78-2.58,18,18,0,0,1,5-1.84,34.16,34.16,0,0,1,7.59-.72V28.1a7.17,7.17,0,0,0-1.32-4.68,4.78,4.78,0,0,0-3.9-1.59,8.24,8.24,0,0,0-2.86.43,11.31,11.31,0,0,0-2,1c-.57.36-1.06.68-1.46,1a2.11,2.11,0,0,1-1.22.43,1.37,1.37,0,0,1-.82-.25,1.81,1.81,0,0,1-.56-.61l-.84-1.49a14.94,14.94,0,0,1,4.73-3.15,14.44,14.44,0,0,1,5.6-1.05A10.14,10.14,0,0,1,51,18.8a8.1,8.1,0,0,1,2.9,2A8.66,8.66,0,0,1,55.68,24a13.16,13.16,0,0,1,.6,4.07ZM44.23,42.12a9.14,9.14,0,0,0,2.24-.25,8.79,8.79,0,0,0,1.92-.7,9.68,9.68,0,0,0,1.72-1.11,14.73,14.73,0,0,0,1.61-1.49V33.12a31.14,31.14,0,0,0-5.45.41,15.09,15.09,0,0,0-3.66,1.06,5,5,0,0,0-2,1.55,3.31,3.31,0,0,0-.64,2,4.33,4.33,0,0,0,.34,1.81,3.35,3.35,0,0,0,.91,1.25,3.6,3.6,0,0,0,1.36.71A6.06,6.06,0,0,0,44.23,42.12Z"/><path class="cls-1" d="M78.45,22.9a1,1,0,0,1-1,.57,1.82,1.82,0,0,1-.89-.28c-.33-.2-.74-.41-1.21-.64a10.94,10.94,0,0,0-1.71-.66,8.18,8.18,0,0,0-2.35-.3,6.89,6.89,0,0,0-2.11.3,5.1,5.1,0,0,0-1.61.83,3.52,3.52,0,0,0-1,1.21,3.19,3.19,0,0,0-.36,1.5,2.49,2.49,0,0,0,.59,1.69,5,5,0,0,0,1.55,1.18,13.88,13.88,0,0,0,2.19.87q1.23.38,2.52.81c.86.29,1.7.6,2.52.95a9.22,9.22,0,0,1,2.19,1.31,6,6,0,0,1,1.55,1.91,5.91,5.91,0,0,1,.59,2.73,8.74,8.74,0,0,1-.65,3.38,7.42,7.42,0,0,1-1.93,2.68,9.47,9.47,0,0,1-3.13,1.79,13.05,13.05,0,0,1-4.28.65,13.34,13.34,0,0,1-5-.9,12.71,12.71,0,0,1-3.81-2.31l1.1-1.77a1.54,1.54,0,0,1,.49-.52,1.43,1.43,0,0,1,.76-.18,1.77,1.77,0,0,1,1,.36c.35.24.77.51,1.27.81a9.72,9.72,0,0,0,1.79.81,8.36,8.36,0,0,0,2.65.36,7.15,7.15,0,0,0,2.38-.35,4.93,4.93,0,0,0,1.69-.95,3.85,3.85,0,0,0,1-1.38,4.47,4.47,0,0,0,.32-1.67A2.8,2.8,0,0,0,75,35.87a5.14,5.14,0,0,0-1.56-1.22,12.14,12.14,0,0,0-2.2-.89L68.71,33c-.86-.28-1.71-.6-2.53-1A8.75,8.75,0,0,1,64,30.67a6.11,6.11,0,0,1-1.55-2,6.53,6.53,0,0,1-.58-2.89,7.08,7.08,0,0,1,2.45-5.36,9.07,9.07,0,0,1,2.95-1.68,11.69,11.69,0,0,1,4-.62,12.59,12.59,0,0,1,4.68.82,11.05,11.05,0,0,1,3.58,2.25Z"/><path class="cls-1" d="M94,45.38a6.34,6.34,0,0,1-4.81-1.75,7,7,0,0,1-1.69-5V22.43H84.29a1,1,0,0,1-.7-.25,1,1,0,0,1-.29-.77V19.56L87.63,19l1.07-8.16a1,1,0,0,1,.34-.64,1,1,0,0,1,.73-.25h2.35v9.1h7.56v3.37H92.12V38.29a3.34,3.34,0,0,0,.81,2.47,2.79,2.79,0,0,0,2.08.81,3.73,3.73,0,0,0,1.27-.19A6.11,6.11,0,0,0,97.2,41c.26-.16.49-.3.67-.43a.87.87,0,0,1,.48-.2.81.81,0,0,1,.65.44L100.36,43a8.54,8.54,0,0,1-2.9,1.76A9.72,9.72,0,0,1,94,45.38Z"/><path class="cls-1" d="M43.15,96.62H41.09a2.45,2.45,0,0,1-1.1-.21,1.17,1.17,0,0,1-.55-.89l-.52-2.45c-.69.62-1.37,1.18-2,1.68A11.44,11.44,0,0,1,34.8,96a10.62,10.62,0,0,1-2.33.77,13,13,0,0,1-2.76.27,9.34,9.34,0,0,1-2.88-.44,6.7,6.7,0,0,1-2.33-1.29,6.23,6.23,0,0,1-1.58-2.19A7.7,7.7,0,0,1,22.33,90a5.9,5.9,0,0,1,.86-3A7.6,7.6,0,0,1,26,84.38a18.09,18.09,0,0,1,5-1.84,34.11,34.11,0,0,1,7.59-.73V79.74a7.24,7.24,0,0,0-1.31-4.69,4.78,4.78,0,0,0-3.9-1.59,8.17,8.17,0,0,0-2.86.43,11.07,11.07,0,0,0-2,1c-.56.35-1.05.68-1.46,1a2.08,2.08,0,0,1-1.21.43A1.41,1.41,0,0,1,25,76a1.84,1.84,0,0,1-.56-.62l-.84-1.49a15,15,0,0,1,4.72-3.15,14.52,14.52,0,0,1,5.61-1,10.14,10.14,0,0,1,3.94.73,8.06,8.06,0,0,1,2.89,2,8.5,8.5,0,0,1,1.78,3.16,13.12,13.12,0,0,1,.6,4.07Zm-12-2.85a9.26,9.26,0,0,0,2.24-.25,8.79,8.79,0,0,0,1.92-.7A10.94,10.94,0,0,0,37,91.71a14.73,14.73,0,0,0,1.6-1.49V84.76a31.22,31.22,0,0,0-5.45.41,15.1,15.1,0,0,0-3.65,1.07,5.09,5.09,0,0,0-2.05,1.54,3.4,3.4,0,0,0-.64,2,4.53,4.53,0,0,0,.34,1.81,3.37,3.37,0,0,0,.92,1.25,3.64,3.64,0,0,0,1.35.71A6.13,6.13,0,0,0,31.1,93.77Z"/><path class="cls-1" d="M50.19,96.62V70.17h2.66a1.47,1.47,0,0,1,1,.29,1.76,1.76,0,0,1,.39,1l.32,4.13A12.08,12.08,0,0,1,58,71.25a7.43,7.43,0,0,1,4.68-1.55,7,7,0,0,1,3.63.94l-.6,3.47a.8.8,0,0,1-.81.66,4.19,4.19,0,0,1-1.12-.25,7,7,0,0,0-2.12-.25,6,6,0,0,0-4,1.41,10.58,10.58,0,0,0-2.73,4.1V96.62Z"/><path class="cls-1" d="M89.63,96.62H87.57a2.45,2.45,0,0,1-1.1-.21,1.17,1.17,0,0,1-.55-.89l-.52-2.45c-.7.62-1.37,1.18-2,1.68A11.44,11.44,0,0,1,81.28,96a10.62,10.62,0,0,1-2.33.77,13,13,0,0,1-2.76.27,9.34,9.34,0,0,1-2.88-.44A6.7,6.7,0,0,1,71,95.31a6.23,6.23,0,0,1-1.58-2.19A7.7,7.7,0,0,1,68.81,90a5.9,5.9,0,0,1,.86-3,7.6,7.6,0,0,1,2.78-2.58,18.09,18.09,0,0,1,5-1.84,34.11,34.11,0,0,1,7.59-.73V79.74a7.24,7.24,0,0,0-1.31-4.69,4.79,4.79,0,0,0-3.91-1.59,8.14,8.14,0,0,0-2.85.43,11.07,11.07,0,0,0-2,1c-.57.35-1,.68-1.46,1a2.08,2.08,0,0,1-1.21.43,1.39,1.39,0,0,1-.82-.24,1.75,1.75,0,0,1-.56-.62l-.84-1.49a15,15,0,0,1,4.72-3.15,14.52,14.52,0,0,1,5.61-1,10.14,10.14,0,0,1,3.94.73,8.06,8.06,0,0,1,2.89,2A8.5,8.5,0,0,1,89,75.63a13.12,13.12,0,0,1,.6,4.07Zm-12-2.85a9.26,9.26,0,0,0,2.24-.25,8.79,8.79,0,0,0,1.92-.7,10.94,10.94,0,0,0,1.72-1.11,14.73,14.73,0,0,0,1.6-1.49V84.76a31.22,31.22,0,0,0-5.45.41A15,15,0,0,0,76,86.24a5.09,5.09,0,0,0-2,1.54,3.4,3.4,0,0,0-.64,2,4.36,4.36,0,0,0,.34,1.81,3.46,3.46,0,0,0,.91,1.25,3.76,3.76,0,0,0,1.36.71A6.13,6.13,0,0,0,77.58,93.77Z"/></svg>