<svg xmlns="http://www.w3.org/2000/svg" viewBox="0 0 62 62"><defs><style>.cls-1{fill:#fc565b;}.cls-2{fill:#fff;}</style></defs><title>simboloboton a-c color 62x62px</title><g id="Capa_2" data-name="Capa 2"><g id="Capa_1-2" data-name="Capa 1"><rect class="cls-1" width="62" height="62"/><path class="cls-2" d="M52.59,36.91a.75.75,0,0,1-.14.12.3.3,0,0,1-.18,0,.75.75,0,0,1-.39-.19,4.2,4.2,0,0,0-.66-.43,6,6,0,0,0-1-.43,5.16,5.16,0,0,0-1.52-.19,5.27,5.27,0,0,0-2.2.44,4.46,4.46,0,0,0-1.63,1.26,5.78,5.78,0,0,0-1,2,10.25,10.25,0,0,0,0,5.31,5.62,5.62,0,0,0,1,2A4.34,4.34,0,0,0,46.41,48a4.91,4.91,0,0,0,2.05.42,5.09,5.09,0,0,0,1.74-.25,5.76,5.76,0,0,0,1.16-.53,4.83,4.83,0,0,0,.71-.53.72.72,0,0,1,.44-.25.35.35,0,0,1,.28.14l.37.47a5,5,0,0,1-.84.8,5.28,5.28,0,0,1-1.14.65,6.73,6.73,0,0,1-1.38.43,7.91,7.91,0,0,1-1.55.15,6.05,6.05,0,0,1-2.51-.5,5.51,5.51,0,0,1-2-1.44,6.72,6.72,0,0,1-1.27-2.32,10,10,0,0,1-.45-3.12,9.84,9.84,0,0,1,.43-3,6.78,6.78,0,0,1,1.27-2.34,5.81,5.81,0,0,1,2-1.52,6.74,6.74,0,0,1,2.77-.54,6.61,6.61,0,0,1,2.48.44A6.21,6.21,0,0,1,53,36.42Z"/><path class="cls-2" d="M19.94,26h-1.6a1.71,1.71,0,0,1-.79-.15,1,1,0,0,1-.44-.62l-.31-1c-.38.33-.75.63-1.11.89a6.59,6.59,0,0,1-1.12.64,5.9,5.9,0,0,1-1.23.39,7.86,7.86,0,0,1-1.44.13A5.65,5.65,0,0,1,10.17,26a3.6,3.6,0,0,1-1.37-.76A3.29,3.29,0,0,1,7.92,24a4.31,4.31,0,0,1-.32-1.75A3.53,3.53,0,0,1,8,20.55,4.19,4.19,0,0,1,9.5,19.07,9.5,9.5,0,0,1,12.23,18a17.49,17.49,0,0,1,4.23-.43v-.88a3.36,3.36,0,0,0-.62-2.22A2.3,2.3,0,0,0,14,13.73a4.21,4.21,0,0,0-1.44.21,5.28,5.28,0,0,0-1,.45l-.78.46a1.69,1.69,0,0,1-.8.2,1,1,0,0,1-.62-.19,1.54,1.54,0,0,1-.42-.46l-.65-1.14a8.82,8.82,0,0,1,6.17-2.34,6,6,0,0,1,2.31.42,5,5,0,0,1,1.73,1.19,5.13,5.13,0,0,1,1.08,1.81,7.08,7.08,0,0,1,.36,2.31ZM13,23.78a4.49,4.49,0,0,0,1-.1,3.79,3.79,0,0,0,.88-.29,5.44,5.44,0,0,0,.79-.49,8,8,0,0,0,.77-.69V19.73a14.57,14.57,0,0,0-2.6.19,6.92,6.92,0,0,0-1.68.5,2.24,2.24,0,0,0-.91.72A1.54,1.54,0,0,0,11,22a1.59,1.59,0,0,0,.55,1.36A2.41,2.41,0,0,0,13,23.78Z"/><polygon class="cls-2" points="35.05 12.12 33.12 10.19 23.69 19.62 33.11 29.04 35.04 27.11 28.91 20.99 51.29 20.99 51.29 18.26 28.91 18.26 35.05 12.12"/><polygon class="cls-2" points="27.64 34.08 35.23 41.68 10.77 41.68 10.77 42.68 35.23 42.68 27.62 50.29 28.33 51 37.15 42.18 28.34 33.37 27.64 34.08"/></g></g></svg>