<svg xmlns="http://www.w3.org/2000/svg" viewBox="0 0 62 62"><defs><style>.cls-1{fill:#fc565b;}.cls-2{fill:#fff;}</style></defs><title>simboloboton c-a color 62x62px</title><g id="Capa_2" data-name="Capa 2"><g id="Capa_1-2" data-name="Capa 1"><rect class="cls-1" width="62" height="62"/><path class="cls-2" d="M42.53,37a8.22,8.22,0,0,1,2.37-1.7,6.62,6.62,0,0,1,2.81-.58,5,5,0,0,1,2,.37,3.84,3.84,0,0,1,1.44,1A4.68,4.68,0,0,1,52,37.82,7.77,7.77,0,0,1,52.32,40v9.35h-.55a.5.5,0,0,1-.54-.4L51,47.1a13.66,13.66,0,0,1-1.17,1,7,7,0,0,1-1.22.78,6.1,6.1,0,0,1-1.38.49,6.78,6.78,0,0,1-1.61.18,4.91,4.91,0,0,1-1.43-.22A3.72,3.72,0,0,1,43,48.7a3.1,3.1,0,0,1-.86-1.14,4,4,0,0,1-.33-1.69,3,3,0,0,1,.52-1.68,4.25,4.25,0,0,1,1.63-1.36,10.66,10.66,0,0,1,2.86-.93A25,25,0,0,1,51,41.5V40a4.84,4.84,0,0,0-.86-3.07,3.08,3.08,0,0,0-2.55-1.08,4.82,4.82,0,0,0-1.77.29,6.79,6.79,0,0,0-1.24.64,8.55,8.55,0,0,0-.82.63.85.85,0,0,1-.53.29.4.4,0,0,1-.26-.07.66.66,0,0,1-.18-.19ZM51,42.41a29.14,29.14,0,0,0-3.54.32,10.27,10.27,0,0,0-2.44.69,3.65,3.65,0,0,0-1.42,1,2.18,2.18,0,0,0-.46,1.37,3,3,0,0,0,.24,1.25,2.43,2.43,0,0,0,.63.86,2.57,2.57,0,0,0,.92.5,3.58,3.58,0,0,0,1.08.16,6.2,6.2,0,0,0,1.54-.18,5.5,5.5,0,0,0,1.3-.51A6,6,0,0,0,50,47.13c.35-.3.69-.62,1-1Z"/><path class="cls-2" d="M18.75,14.33a1.54,1.54,0,0,1-.32.31.68.68,0,0,1-.44.12,1,1,0,0,1-.53-.17l-.62-.37a4.62,4.62,0,0,0-.86-.38,4,4,0,0,0-1.23-.16A3.71,3.71,0,0,0,13.1,14a3.16,3.16,0,0,0-1.18,1,4.55,4.55,0,0,0-.7,1.54,9.09,9.09,0,0,0,0,4.15A4.65,4.65,0,0,0,12,22.23a3.11,3.11,0,0,0,1.16.95,3.44,3.44,0,0,0,1.53.33A3.78,3.78,0,0,0,16,23.3a4.33,4.33,0,0,0,.89-.46c.24-.17.45-.32.62-.46a1,1,0,0,1,.6-.21.72.72,0,0,1,.65.33l1,1.3A6.36,6.36,0,0,1,18.54,25a7.25,7.25,0,0,1-1.43.75,7.42,7.42,0,0,1-1.54.4,10.54,10.54,0,0,1-1.57.11,6.61,6.61,0,0,1-2.59-.51A6,6,0,0,1,9.3,24.22a7.11,7.11,0,0,1-1.43-2.41,9.1,9.1,0,0,1-.53-3.24,9.46,9.46,0,0,1,.47-3,6.8,6.8,0,0,1,1.38-2.42,6.25,6.25,0,0,1,2.25-1.59A7.64,7.64,0,0,1,14.53,11a7.26,7.26,0,0,1,2.91.54A6.88,6.88,0,0,1,19.68,13Z"/><polygon class="cls-2" points="51.29 18.26 28.91 18.26 35.05 12.12 33.12 10.19 23.69 19.62 33.11 29.04 35.04 27.11 28.91 20.99 51.29 20.99 51.29 18.26"/><polygon class="cls-2" points="28.34 33.37 27.64 34.08 35.23 41.68 10.77 41.68 10.77 42.68 35.23 42.68 27.62 50.29 28.33 51 37.15 42.18 28.34 33.37"/></g></g></svg>