<svg xmlns="http://www.w3.org/2000/svg" viewBox="0 0 26 26"><defs><style>.cls-1{fill:#dcdcdc;}.cls-2{fill:#707070;}</style></defs><title>simboloRecurso 1</title><g id="Capa_2" data-name="Capa 2"><g id="Capa_1-2" data-name="Capa 1"><path class="cls-1" d="M13,0A13,13,0,0,0,1.42,18.88L.77,25.23l6.35-.65A13,13,0,1,0,13,0Z"/><path id="Audio_Output_Volume_High" data-name="Audio Output Volume High" class="cls-2" d="M7.13,15.32h0l-2.18,0A.93.93,0,0,1,4,14.34V11.66a.94.94,0,0,1,.93-.94H7.08l0,0,4.26-3c.17-.12.3-.06.3.15V18.37c0,.2-.13.27-.3.15Zm11.59,4.86a.5.5,0,0,1-.06-.67,10,10,0,0,0,0-13,.48.48,0,0,1,.06-.66.45.45,0,0,1,.65,0h0a10.92,10.92,0,0,1,0,14.22.46.46,0,0,1-.36.17.47.47,0,0,1-.3-.1Zm-3-1.9a.47.47,0,0,1,0-.66,7.08,7.08,0,0,0,0-9.23.48.48,0,0,1,0-.67.47.47,0,0,1,.66.06h0a8,8,0,0,1,0,10.44.46.46,0,0,1-.36.17.48.48,0,0,1-.3-.11ZM13.39,16a.47.47,0,0,1,0-.66,3.1,3.1,0,0,0,.24-4.39,1.88,1.88,0,0,0-.24-.25.47.47,0,0,1,0-.66.46.46,0,0,1,.65,0h0a4,4,0,0,1,.2,5.69l-.2.19a.44.44,0,0,1-.34.16.43.43,0,0,1-.31-.12Z"/></g></g></svg>